<?xml version="1.0" encoding="utf-8"?>
<!-- Generator: Adobe Illustrator 21.0.0, SVG Export Plug-In . SVG Version: 6.00 Build 0)  -->
<svg version="1.1" id="圖層_1" xmlns="http://www.w3.org/2000/svg" xmlns:xlink="http://www.w3.org/1999/xlink" x="0px" y="0px"
	 viewBox="0 0 566.9 283.5" style="enable-background:new 0 0 566.9 283.5;" xml:space="preserve">
<style type="text/css">
	.st0{fill-rule:evenodd;clip-rule:evenodd;fill:#FAE4D6;}
	.st1{fill:none;stroke:#040000;stroke-width:1.56;stroke-miterlimit:8;}
	.st2{clip-path:url(#SVGID_2_);fill-rule:evenodd;clip-rule:evenodd;fill:#D8E1F2;}
	.st3{clip-path:url(#SVGID_2_);fill:none;stroke:#040000;stroke-width:1.5;stroke-miterlimit:8;}
	.st4{clip-path:url(#SVGID_2_);}
	.st5{clip-path:url(#SVGID_4_);fill-rule:evenodd;clip-rule:evenodd;fill:#FCF0CC;}
	.st6{clip-path:url(#SVGID_4_);fill:none;stroke:#040000;stroke-width:1.5;stroke-miterlimit:8;}
	.st7{clip-path:url(#SVGID_4_);}
	.st8{clip-path:url(#SVGID_6_);fill-rule:evenodd;clip-rule:evenodd;fill:#1A2A51;}
	.st9{clip-path:url(#SVGID_6_);fill:none;stroke:#FFFFFF;stroke-width:1.56;stroke-miterlimit:8;}
	.st10{clip-path:url(#SVGID_6_);}
	.st11{clip-path:url(#SVGID_8_);fill-rule:evenodd;clip-rule:evenodd;fill:#CAE9FA;}
	.st12{clip-path:url(#SVGID_8_);fill:none;stroke:#040000;stroke-width:1.56;stroke-miterlimit:8;}
	.st13{clip-path:url(#SVGID_8_);}
	.st14{clip-path:url(#SVGID_10_);fill-rule:evenodd;clip-rule:evenodd;fill:#ECAD83;}
	.st15{clip-path:url(#SVGID_10_);fill:none;stroke:#040000;stroke-width:1.5;stroke-miterlimit:8;}
	.st16{clip-path:url(#SVGID_10_);}
	.st17{clip-path:url(#SVGID_12_);fill-rule:evenodd;clip-rule:evenodd;fill:#DFDDEF;}
	.st18{clip-path:url(#SVGID_12_);fill:none;stroke:#040000;stroke-width:1.5;stroke-miterlimit:8;}
	.st19{clip-path:url(#SVGID_12_);}
	.st20{clip-path:url(#SVGID_14_);fill-rule:evenodd;clip-rule:evenodd;fill:#F8C9C9;}
	.st21{clip-path:url(#SVGID_14_);fill:none;stroke:#040000;stroke-width:1.5;stroke-miterlimit:8;}
	.st22{clip-path:url(#SVGID_14_);}
	.st23{clip-path:url(#SVGID_16_);fill-rule:evenodd;clip-rule:evenodd;fill:#DFEDD7;}
	.st24{clip-path:url(#SVGID_16_);fill:none;stroke:#040000;stroke-width:1.5;stroke-miterlimit:8;}
	.st25{clip-path:url(#SVGID_16_);}
	.st26{clip-path:url(#SVGID_18_);}
	.st27{clip-path:url(#SVGID_20_);}
	.st28{fill:#040000;}
	.st29{font-family:'DFKaiShu-SB-Estd-BF';}
	.st30{font-size:13.0999px;}
	.st31{clip-path:url(#SVGID_22_);}
	.st32{clip-path:url(#SVGID_24_);}
	.st33{clip-path:url(#SVGID_26_);}
	.st34{clip-path:url(#SVGID_28_);}
	.st35{clip-path:url(#SVGID_30_);}
	.st36{clip-path:url(#SVGID_32_);}
	.st37{clip-path:url(#SVGID_34_);}
	.st38{clip-path:url(#SVGID_36_);}
	.st39{clip-path:url(#SVGID_38_);}
	.st40{clip-path:url(#SVGID_40_);}
	.st41{clip-path:url(#SVGID_42_);}
	.st42{clip-path:url(#SVGID_44_);}
	.st43{clip-path:url(#SVGID_46_);}
	.st44{clip-path:url(#SVGID_48_);}
	.st45{clip-path:url(#SVGID_50_);}
	.st46{clip-path:url(#SVGID_52_);}
	.st47{clip-path:url(#SVGID_54_);}
	.st48{clip-path:url(#SVGID_56_);}
	.st49{font-size:11.9864px;}
	.st50{clip-path:url(#SVGID_58_);}
	.st51{clip-path:url(#SVGID_60_);}
	.st52{clip-path:url(#SVGID_62_);}
	.st53{clip-path:url(#SVGID_64_);}
	.st54{clip-path:url(#SVGID_66_);fill:#040000;}
	.st55{clip-path:url(#SVGID_66_);}
	.st56{clip-path:url(#SVGID_68_);fill:#040000;}
	.st57{clip-path:url(#SVGID_68_);}
	.st58{clip-path:url(#SVGID_70_);}
	.st59{clip-path:url(#SVGID_72_);}
	.st60{fill:#FFFFFF;}
	.st61{clip-path:url(#SVGID_74_);}
	.st62{clip-path:url(#SVGID_76_);}
	.st63{clip-path:url(#SVGID_78_);}
	.st64{clip-path:url(#SVGID_80_);}
</style>
<g>
	<path class="st0" d="M217.1,179c-20.3-35.9-7.7-81.4,28.2-101.7c11.3-6.4,24-9.7,36.9-9.7l-0.2,74.6L217.1,179L217.1,179z"/>
	<path class="st1" d="M217.1,179c-20.3-35.9-7.7-81.4,28.2-101.7c11.3-6.4,24-9.7,36.9-9.7l-0.2,74.6L217.1,179L217.1,179z"/>
	<g>
		<defs>
			<polygon id="SVGID_1_" points="140.1,279.9 419.7,279.9 419.7,4.6 140.1,4.6 140.1,279.9 			"/>
		</defs>
		<clipPath id="SVGID_2_">
			<use xlink:href="#SVGID_1_"  style="overflow:visible;"/>
		</clipPath>
		<path class="st2" d="M281.4,67.6c41.2-0.3,74.9,32.8,75.2,74c0.1,13.3-3.3,26.4-10,37.9L282,142.3L281.4,67.6L281.4,67.6z"/>
		<path class="st3" d="M281.4,67.6c41.2-0.3,74.9,32.8,75.2,74c0.1,13.3-3.3,26.4-10,37.9L282,142.3L281.4,67.6L281.4,67.6z"/>
		<g class="st4">
			<defs>
				<polygon id="SVGID_3_" points="140.1,279.9 419.7,279.9 419.7,4.6 140.1,4.6 140.1,279.9 				"/>
			</defs>
			<clipPath id="SVGID_4_">
				<use xlink:href="#SVGID_3_"  style="overflow:visible;"/>
			</clipPath>
			<path class="st5" d="M346.7,179.5c-20.6,35.7-66.3,47.9-101.9,27.3c-11.5-6.7-21.1-16.3-27.6-27.8l64.9-36.8L346.7,179.5
				L346.7,179.5z"/>
			<path class="st6" d="M346.7,179.5c-20.6,35.7-66.3,47.9-101.9,27.3c-11.5-6.7-21.1-16.3-27.6-27.8l64.9-36.8L346.7,179.5
				L346.7,179.5z"/>
			<g class="st7">
				<defs>
					<polygon id="SVGID_5_" points="140.1,279.9 419.7,279.9 419.7,4.6 140.1,4.6 140.1,279.9 					"/>
				</defs>
				<clipPath id="SVGID_6_">
					<use xlink:href="#SVGID_5_"  style="overflow:visible;"/>
				</clipPath>
				<polygon class="st8" points="217.9,178.5 282.1,68 346.2,178.5 217.9,178.5 				"/>
				<polygon class="st9" points="217.9,178.5 282.1,68 346.2,178.5 217.9,178.5 				"/>
				<g class="st10">
					<defs>
						<polygon id="SVGID_7_" points="140.1,279.9 419.7,279.9 419.7,4.6 140.1,4.6 140.1,279.9 						"/>
					</defs>
					<clipPath id="SVGID_8_">
						<use xlink:href="#SVGID_7_"  style="overflow:visible;"/>
					</clipPath>
					<path class="st11" d="M282.5,5.1c59.3,0.2,111.7,38.4,130.1,94.8l-59.4,19.3c-10-30.7-38.6-51.6-70.9-51.7L282.5,5.1z"/>
					<path class="st12" d="M282.5,5.1c59.3,0.2,111.7,38.4,130.1,94.8l-59.4,19.3c-10-30.7-38.6-51.6-70.9-51.7L282.5,5.1z"/>
					<g class="st13">
						<defs>
							<polygon id="SVGID_9_" points="140.1,279.9 419.7,279.9 419.7,4.6 140.1,4.6 140.1,279.9 							"/>
						</defs>
						<clipPath id="SVGID_10_">
							<use xlink:href="#SVGID_9_"  style="overflow:visible;"/>
						</clipPath>
						<path class="st14" d="M412.7,100.3c18.1,56.4-2,118.1-50,153L326,202.8c26.1-19,37.1-52.6,27.2-83.4L412.7,100.3z"/>
						<path class="st15" d="M412.7,100.3c18.1,56.4-2,118.1-50,153L326,202.8c26.1-19,37.1-52.6,27.2-83.4L412.7,100.3z"/>
						<g class="st16">
							<defs>
								<polygon id="SVGID_11_" points="140.1,279.9 419.7,279.9 419.7,4.6 140.1,4.6 140.1,279.9 								"/>
							</defs>
							<clipPath id="SVGID_12_">
								<use xlink:href="#SVGID_11_"  style="overflow:visible;"/>
							</clipPath>
							<path class="st17" d="M201,253c-47.8-35-67.8-96.8-49.5-153.1l59.4,19.3c-10,30.7,0.9,64.4,27,83.5L201,253z"/>
							<path class="st18" d="M201,253c-47.8-35-67.8-96.8-49.5-153.1l59.4,19.3c-10,30.7,0.9,64.4,27,83.5L201,253z"/>
							<g class="st19">
								<defs>
									<polygon id="SVGID_13_" points="140.1,279.9 419.7,279.9 419.7,4.6 140.1,4.6 140.1,279.9 									"/>
								</defs>
								<clipPath id="SVGID_14_">
									<use xlink:href="#SVGID_13_"  style="overflow:visible;"/>
								</clipPath>
								<path class="st20" d="M362.3,253.5c-48.1,34.7-113,34.6-160.9-0.3l36.7-50.5c26.1,19,61.5,19.1,87.7,0.1L362.3,253.5z"/>
								<path class="st21" d="M362.3,253.5c-48.1,34.7-113,34.6-160.9-0.3l36.7-50.5c26.1,19,61.5,19.1,87.7,0.1L362.3,253.5z"/>
								<g class="st22">
									<defs>
										<polygon id="SVGID_15_" points="140.1,279.9 419.7,279.9 419.7,4.6 140.1,4.6 140.1,279.9 										"/>
									</defs>
									<clipPath id="SVGID_16_">
										<use xlink:href="#SVGID_15_"  style="overflow:visible;"/>
									</clipPath>
									<path class="st23" d="M151.7,99.5C170.2,43.2,222.8,5.1,282,5.1l0,62.4c-32.3,0-61,20.8-71.1,51.5L151.7,99.5z"/>
									<path class="st24" d="M151.7,99.5C170.2,43.2,222.8,5.1,282,5.1l0,62.4c-32.3,0-61,20.8-71.1,51.5L151.7,99.5z"/>
									<g class="st25">
										<defs>
											<polygon id="SVGID_17_" points="140.1,279.9 419.7,279.9 419.7,4.6 140.1,4.6 140.1,279.9 											"/>
										</defs>
										<clipPath id="SVGID_18_">
											<use xlink:href="#SVGID_17_"  style="overflow:visible;"/>
										</clipPath>
										<g class="st26">
											<defs>
												<rect id="SVGID_19_" x="140.1" y="4.6" width="279.7" height="275.3"/>
											</defs>
											<clipPath id="SVGID_20_">
												<use xlink:href="#SVGID_19_"  style="overflow:visible;"/>
											</clipPath>
											<g class="st27">
												<text transform="matrix(1 0 0 1 185.9473 55.3281)" class="st28 st29 st30">中護健康學院</text>
											</g>
										</g>
										<g class="st26">
											<defs>
												<polygon id="SVGID_21_" points="140.1,279.9 419.7,279.9 419.7,4.6 140.1,4.6 140.1,279.9 												"/>
											</defs>
											<clipPath id="SVGID_22_">
												<use xlink:href="#SVGID_21_"  style="overflow:visible;"/>
											</clipPath>
											<g class="st31">
												<defs>
													<rect id="SVGID_23_" x="140.1" y="4.6" width="279.7" height="275.3"/>
												</defs>
												<clipPath id="SVGID_24_">
													<use xlink:href="#SVGID_23_"  style="overflow:visible;"/>
												</clipPath>
												<g class="st32">
													<text transform="matrix(1 0 0 1 199.0522 71.0645)" class="st28 st29 st30">特色學程</text>
												</g>
											</g>
											<g class="st31">
												<defs>
													<polygon id="SVGID_25_" points="140.1,279.9 419.7,279.9 419.7,4.6 140.1,4.6 140.1,279.9 													"/>
												</defs>
												<clipPath id="SVGID_26_">
													<use xlink:href="#SVGID_25_"  style="overflow:visible;"/>
												</clipPath>
												<g class="st33">
													<defs>
														<rect id="SVGID_27_" x="140.1" y="4.6" width="279.7" height="275.3"/>
													</defs>
													<clipPath id="SVGID_28_">
														<use xlink:href="#SVGID_27_"  style="overflow:visible;"/>
													</clipPath>
													<g class="st34">
														<text transform="matrix(1 0 0 1 324.7988 54.7046)" class="st28 st29 st30">商學院</text>
													</g>
												</g>
												<g class="st33">
													<defs>
														<polygon id="SVGID_29_" points="140.1,279.9 419.7,279.9 419.7,4.6 140.1,4.6 140.1,279.9 														"/>
													</defs>
													<clipPath id="SVGID_30_">
														<use xlink:href="#SVGID_29_"  style="overflow:visible;"/>
													</clipPath>
													<g class="st35">
														<defs>
															<rect id="SVGID_31_" x="140.1" y="4.6" width="279.7" height="275.3"/>
														</defs>
														<clipPath id="SVGID_32_">
															<use xlink:href="#SVGID_31_"  style="overflow:visible;"/>
														</clipPath>
														<g class="st36">
															<text transform="matrix(1 0 0 1 318.2402 70.4287)" class="st28 st29 st30">特色學程</text>
														</g>
													</g>
													<g class="st35">
														<defs>
															<polygon id="SVGID_33_" points="140.1,279.9 419.7,279.9 419.7,4.6 140.1,4.6 140.1,279.9 															"/>
														</defs>
														<clipPath id="SVGID_34_">
															<use xlink:href="#SVGID_33_"  style="overflow:visible;"/>
														</clipPath>
														<g class="st37">
															<defs>
																<rect id="SVGID_35_" x="140.1" y="4.6" width="279.7" height="275.3"/>
															</defs>
															<clipPath id="SVGID_36_">
																<use xlink:href="#SVGID_35_"  style="overflow:visible;"/>
															</clipPath>
															<g class="st38">
																<text transform="matrix(1 0 0 1 357.6055 156.1289)" class="st28 st29 st30">設計學院</text>
															</g>
														</g>
														<g class="st37">
															<defs>
																<polygon id="SVGID_37_" points="140.1,279.9 419.7,279.9 419.7,4.6 140.1,4.6 140.1,279.9 																"/>
															</defs>
															<clipPath id="SVGID_38_">
																<use xlink:href="#SVGID_37_"  style="overflow:visible;"/>
															</clipPath>
															<g class="st39">
																<defs>
																	<rect id="SVGID_39_" x="140.1" y="4.6" width="279.7" height="275.3"/>
																</defs>
																<clipPath id="SVGID_40_">
																	<use xlink:href="#SVGID_39_"  style="overflow:visible;"/>
																</clipPath>
																<g class="st40">
																	<text transform="matrix(1 0 0 1 357.6055 171.8555)" class="st28 st29 st30">特色學程</text>
																</g>
															</g>
															<g class="st39">
																<defs>
																	<polygon id="SVGID_41_" points="140.1,279.9 419.7,279.9 419.7,4.6 140.1,4.6 140.1,279.9 																	"/>
																</defs>
																<clipPath id="SVGID_42_">
																	<use xlink:href="#SVGID_41_"  style="overflow:visible;"/>
																</clipPath>
																<g class="st41">
																	<defs>
																		<rect id="SVGID_43_" x="140.1" y="4.6" width="279.7" height="275.3"/>
																	</defs>
																	<clipPath id="SVGID_44_">
																		<use xlink:href="#SVGID_43_"  style="overflow:visible;"/>
																	</clipPath>
																	<g class="st42">
																		<text transform="matrix(1 0 0 1 255.8403 240.4268)" class="st28 st29 st30">語文</text>
																	</g>
																</g>
																<g class="st41">
																	<defs>
																		<polygon id="SVGID_45_" points="140.1,279.9 419.7,279.9 419.7,4.6 140.1,4.6 140.1,279.9 																		"/>
																	</defs>
																	<clipPath id="SVGID_46_">
																		<use xlink:href="#SVGID_45_"  style="overflow:visible;"/>
																	</clipPath>
																	<g class="st43">
																		<defs>
																			<rect id="SVGID_47_" x="140.1" y="4.6" width="279.7" height="275.3"/>
																		</defs>
																		<clipPath id="SVGID_48_">
																			<use xlink:href="#SVGID_47_"  style="overflow:visible;"/>
																		</clipPath>
																		<g class="st44">
																			<text transform="matrix(1 0 0 1 282.0571 240.4268)" class="st28 st29 st30">學院</text>
																		</g>
																	</g>
																	<g class="st43">
																		<defs>
																			<polygon id="SVGID_49_" points="140.1,279.9 419.7,279.9 419.7,4.6 140.1,4.6 140.1,279.9 																			
																				"/>
																		</defs>
																		<clipPath id="SVGID_50_">
																			<use xlink:href="#SVGID_49_"  style="overflow:visible;"/>
																		</clipPath>
																		<g class="st45">
																			<defs>
																				<rect id="SVGID_51_" x="140.1" y="4.6" width="279.7" height="275.3"/>
																			</defs>
																			<clipPath id="SVGID_52_">
																				<use xlink:href="#SVGID_51_"  style="overflow:visible;"/>
																			</clipPath>
																			<g class="st46">
																				<text transform="matrix(1 0 0 1 255.8403 256.1563)" class="st28 st29 st30">特色學程</text>
																			</g>
																		</g>
																		<g class="st45">
																			<defs>
																				<polygon id="SVGID_53_" points="140.1,279.9 419.7,279.9 419.7,4.6 140.1,4.6 140.1,279.9 																				
																					"/>
																			</defs>
																			<clipPath id="SVGID_54_">
																				<use xlink:href="#SVGID_53_"  style="overflow:visible;"/>
																			</clipPath>
																			<g class="st47">
																				<defs>
																					<rect id="SVGID_55_" x="140.1" y="4.6" width="279.7" height="275.3"/>
																				</defs>
																				<clipPath id="SVGID_56_">
																					<use xlink:href="#SVGID_55_"  style="overflow:visible;"/>
																				</clipPath>
																				<g class="st48">
																					<text transform="matrix(1 0 0 1 147.3545 147.8799)"><tspan x="0" y="0" class="st28 st29 st49">資</tspan><tspan x="12" y="0" class="st28 st29 st49">訊與</tspan><tspan x="36" y="0" class="st28 st29 st49">流</tspan><tspan x="48.1" y="0" class="st28 st29 st49">通</tspan></text>
																				</g>
																			</g>
																			<g class="st47">
																				<defs>
																					<polygon id="SVGID_57_" points="140.1,279.9 419.7,279.9 419.7,4.6 140.1,4.6 140.1,279.9 
																																											"/>
																				</defs>
																				<clipPath id="SVGID_58_">
																					<use xlink:href="#SVGID_57_"  style="overflow:visible;"/>
																				</clipPath>
																				<g class="st50">
																					<defs>
																						<rect id="SVGID_59_" x="140.1" y="4.6" width="279.7" height="275.3"/>
																					</defs>
																					<clipPath id="SVGID_60_">
																						<use xlink:href="#SVGID_59_"  style="overflow:visible;"/>
																					</clipPath>
																					<g class="st51">
																						<text transform="matrix(1 0 0 1 165.3765 162.2998)"><tspan x="0" y="0" class="st28 st29 st49">學</tspan><tspan x="12" y="0" class="st28 st29 st49">院</tspan></text>
																					</g>
																				</g>
																				<g class="st50">
																					<defs>
																						<polygon id="SVGID_61_" points="140.1,279.9 419.7,279.9 419.7,4.6 140.1,4.6 140.1,279.9 
																																													"/>
																					</defs>
																					<clipPath id="SVGID_62_">
																						<use xlink:href="#SVGID_61_"  style="overflow:visible;"/>
																					</clipPath>
																					<g class="st52">
																						<defs>
																							<rect id="SVGID_63_" x="140.1" y="4.6" width="279.7" height="275.3"/>
																						</defs>
																						<clipPath id="SVGID_64_">
																							<use xlink:href="#SVGID_63_"  style="overflow:visible;"/>
																						</clipPath>
																						<g class="st53">
																							<text transform="matrix(1 0 0 1 153.3818 176.7158)"><tspan x="0" y="0" class="st28 st29 st49">特</tspan><tspan x="12" y="0" class="st28 st29 st49">色學程</tspan></text>
																						</g>
																					</g>
																					<g class="st52">
																						<defs>
																							<polygon id="SVGID_65_" points="140.1,279.9 419.7,279.9 419.7,4.6 140.1,4.6 140.1,279.9 
																																															"/>
																						</defs>
																						<clipPath id="SVGID_66_">
																							<use xlink:href="#SVGID_65_"  style="overflow:visible;"/>
																						</clipPath>
																						<path class="st54" d="M314,102.7c0.2-0.1,0.4-0.2,0.6-0.2c0.2,0,0.3,0.1,0.4,0.3c2.4,4.2,3.7,6.7,3.9,7.3
																							c0.1,0.3,0.2,0.5,0.1,0.6c-0.1,0.1-0.2,0-0.4-0.1c-0.3-0.1-0.5-0.3-0.6-0.6c-0.1-0.2-0.2-0.3-0.2-0.5
																							c-0.1-0.4-0.4-1-0.7-1.7c-0.3-0.7-1-1.8-1.9-3.4c-0.4-0.7-0.8-1.1-1.1-1.3c-0.1-0.1-0.2-0.1-0.2-0.2
																							C313.9,102.9,313.9,102.8,314,102.7L314,102.7z M320,98.6c0.2-0.1,0.5-0.1,1.1-0.1c0.3,0,0.5,0.1,0.5,0.2
																							c0,0.1,0.1,0.2,0.1,0.3c0.1,0.3,0.3,0.8,0.7,1.6c0.9,1.6,1.6,2.7,2.1,3.5c0.4,0.6,0.7,1.2,1.1,1.8
																							c0.2,0.3,0.3,0.6,0.3,0.9c0,0.3-0.1,0.5-0.2,0.6l-1.1-1.1c0,0,0-0.1-0.1-0.3c-0.1-0.3-0.6-1.2-1.5-2.7
																							c-0.7-1.1-1.3-2.2-2-3.2c-0.3-0.4-0.5-0.6-0.6-0.7c-0.1,0-0.2,0-0.4,0.1c-0.7,0.4-1.4,0.9-2.1,1.4
																							c-1,0.7-1.7,1.2-2.1,1.6c-0.2,0.2-0.4,0.3-0.6,0.4c-0.1,0.1-0.3,0.1-0.5,0.1c-0.2,0-0.3,0-0.3-0.1
																							c0-0.1,0-0.1,0.1-0.2c1.5-1,3-2,4.4-3c0.3-0.2,0.6-0.4,0.8-0.7C319.8,98.8,320,98.6,320,98.6L320,98.6z
																							 M324.1,106.4c0.1,0,0.1-0.1,0.3-0.1c0.1,0,0.2-0.1,0.2-0.1l1.1,1.1c-0.1,0-0.2,0-0.3-0.1
																							c-0.3-0.2-0.6-0.4-1-0.6c-0.2,0-0.2-0.1-0.2-0.1C324.1,106.5,324.1,106.5,324.1,106.4L324.1,106.4z
																							 M319.2,101.8c0.1,0,0.2-0.1,0.4-0.2c0.2,0,0.3,0,0.4,0c0,0.1,0,0.2-0.2,0.4c-0.3,0.2-0.5,0.4-0.6,0.5
																							c-0.1,0.1-0.5,0.5-1.2,1c-0.3,0.3-0.6,0.5-0.8,0.6c-0.1,0.1-0.3,0.1-0.4,0.2c-0.2,0-0.3,0-0.3,0
																							c0-0.1,0-0.2,0.2-0.3c0.7-0.6,1.4-1.2,2.1-1.8C319.1,101.9,319.2,101.8,319.2,101.8L319.2,101.8z M317,105.3
																							c0.1-0.1,0.2-0.1,0.3-0.1c0.2,0,0.4,0,0.4,0.1c0,0.1,0.1,0.1,0.1,0.2c0.3,0.4,0.6,0.7,0.7,0.9
																							c0.1,0.1,0.1,0.2,0.1,0.2c0,0.1,0,0.1,0,0.1c0,0-0.1,0-0.2,0c-0.1-0.1-0.2-0.1-0.3-0.2
																							c-0.2-0.3-0.3-0.4-0.3-0.4c-0.2-0.2-0.3-0.4-0.4-0.4c-0.1-0.1-0.2-0.1-0.3-0.2c-0.1,0-0.1,0-0.1,0
																							C316.9,105.4,316.9,105.3,317,105.3L317,105.3z M318.3,104.1c0.1-0.1,0.3-0.1,0.6-0.1c0.2,0,0.3,0,0.3,0.1
																							c0,0.1,0,0.1,0,0.2c0,0.1,0,0.3,0,0.5c0,0,0,0.2,0.1,0.6c0,0.1,0,0.2-0.1,0.3c-0.2,0.1-0.2,0.1-0.3,0
																							c0,0,0-0.1-0.1-0.1c-0.1-0.2-0.2-0.3-0.2-0.5c-0.1-0.1-0.1-0.3-0.2-0.4c0-0.1-0.1-0.1-0.2,0
																							c-0.1,0-0.2,0.1-0.3,0.2c-0.2,0.2-0.4,0.3-0.4,0.4c-0.1,0-0.2,0.1-0.3,0c-0.1,0-0.2,0-0.2,0
																							c0,0,0-0.1,0.1-0.1c0.2-0.2,0.4-0.3,0.6-0.5c0.1-0.1,0.3-0.3,0.4-0.5C318.2,104.1,318.3,104.1,318.3,104.1
																							L318.3,104.1z M319,105.5c0.1,0,0.2-0.1,0.4-0.1c0.2,0,0.3,0,0.3,0.1c0,0.1,0,0.1,0,0.1
																							c-0.1,0.1-0.3,0.2-0.3,0.3c-0.3,0.3-0.5,0.4-0.5,0.4c-0.1,0.1-0.1,0.1-0.2,0.2c-0.1,0.1-0.3,0.1-0.3,0.1
																							c-0.1,0-0.1-0.1-0.2-0.1c0-0.1,0-0.1,0.1-0.2c0.2-0.2,0.4-0.4,0.5-0.6C318.9,105.5,319,105.5,319,105.5
																							L319,105.5z M320.4,105.7c0.1,0,0.1,0,0.1,0c0,0,0,0.1,0,0.1c-0.1,0.2-0.4,0.6-0.7,1.1
																							c-0.2,0.3-0.3,0.6-0.6,0.9c0,0.1,0,0.1-0.1,0.1c-0.1,0.1-0.3,0.1-0.6,0c-0.2-0.1-0.4-0.1-0.4-0.2
																							c0,0,0,0,0-0.1c0.1-0.1,0.2-0.2,0.3-0.2c0.4-0.3,0.9-0.9,1.6-1.6C320.3,105.8,320.4,105.8,320.4,105.7
																							L320.4,105.7z M317.4,101.4c0.2-0.1,0.4-0.2,0.6-0.2c0.1,0,0.2,0.1,0.3,0.2c0.3,0.5,0.7,1,1.2,1.4
																							c0.5,0.5,1.1,0.9,1.6,1.3c0.4,0.3,0.9,0.5,1.4,0.6c0.2,0.1,0.3,0.1,0.3,0c0,0,0-0.1-0.1-0.4
																							c0,0-0.1-0.2-0.2-0.5c0-0.1,0-0.1,0-0.1c0,0,0.1,0,0.2,0.1c0.4,0.6,0.8,1,1.1,1.2c0.1,0.1,0.2,0.1,0.3,0.2
																							c0.1,0.1,0,0.2-0.1,0.3c-0.1,0.1-0.3,0.1-0.7,0.1c-0.4,0-0.7-0.1-1-0.3c-0.6-0.2-1.1-0.6-1.7-1
																							c-0.7-0.5-1.6-1.3-2.7-2.4c-0.2-0.2-0.3-0.3-0.4-0.3c-0.1,0-0.2-0.1-0.2-0.1
																							C317.2,101.6,317.2,101.5,317.4,101.4L317.4,101.4z M320.3,102.4c0.1-0.1,0.3-0.1,0.6-0.1
																							c0.2,0,0.4,0.1,0.4,0.2c0,0,0,0.1,0,0.2c0,0.3,0,0.5,0,0.7c0.1,0.8,0.2,1.4,0.1,2c-0.1,0.7-0.3,1.4-0.6,1.9
																							c-0.1,0.3-0.3,0.4-0.3,0.5c0,0-0.1,0-0.1,0c0.2-0.7,0.4-1.4,0.4-2c0-0.5,0-1.1-0.1-1.8
																							c-0.1-0.4-0.2-0.8-0.3-1.1l-0.2-0.2C320.2,102.5,320.2,102.4,320.3,102.4L320.3,102.4z M319.1,100.7
																							c0.1-0.1,0.2-0.1,0.3-0.1c0.3-0.1,0.6-0.1,0.8-0.1c0.2,0,0.3,0.1,0.4,0.3c0.1,0.2,0.1,0.4-0.1,0.5
																							c-0.1,0-0.2,0.1-0.3,0c-0.2,0-0.6-0.2-1.1-0.4c-0.1,0-0.1,0-0.1-0.1C319.1,100.8,319.1,100.7,319.1,100.7
																							L319.1,100.7z M323.7,106.3c0.1-0.1,0.3-0.1,0.6-0.1c0.3,0,0.4,0.1,0.5,0.1c0,0.1,0,0.1-0.2,0.2
																							c-0.7,0.4-1.3,0.8-1.8,1.1c-1.7,1.1-2.5,1.6-2.5,1.6c-0.5,0.3-0.8,0.5-1.1,0.7c-0.2,0.1-0.4,0.2-0.5,0.1
																							c-0.1,0-0.2-0.1-0.2-0.2c-0.1-0.1,0-0.2,0.1-0.3c1.4-0.9,2.7-1.7,3.9-2.5
																							C323.1,106.7,323.5,106.5,323.7,106.3L323.7,106.3z M321.6,113.1c0.1-0.1,0.4-0.1,0.7-0.1
																							c0.2,0,0.4,0,0.4,0.1c0,0.1,0,0.2,0,0.3c-0.2,0.5-0.3,0.9-0.3,1.2c0,0.1,0,0.2,0.1,0.3c0,0.1,0.1,0.1,0.3,0.2
																							c0.8,0.4,1.3,0.7,1.4,0.9c0.1,0.2,0.1,0.4,0.1,0.6c0,0.2-0.1,0.4-0.2,0.4l-0.8-0.5c0.1-0.1,0.1-0.2,0-0.4
																							c-0.2-0.3-0.5-0.6-0.9-0.8c-0.2-0.1-0.3-0.1-0.3-0.2c-0.1-0.1-0.1-0.4-0.2-0.9c0-0.1,0-0.2-0.1-0.3
																							c0-0.1-0.1-0.1-0.1,0c-0.1,0-0.2,0.1-0.2,0.2c-0.3,0.3-0.5,0.5-0.6,0.5c-0.1,0.1-0.3,0.1-0.3,0.1
																							c-0.1,0-0.1,0-0.2-0.1c0,0,0-0.1,0.1-0.2c0.4-0.4,0.7-0.8,0.9-1.1C321.5,113.3,321.5,113.2,321.6,113.1
																							L321.6,113.1z M323.3,116.6l0.8,0.5c0,0-0.2,0-0.3,0c-0.4-0.1-0.8-0.2-1.1-0.2c0,0,0-0.1,0-0.1L323.3,116.6z
																							 M320,114.5c0.2-0.1,0.3-0.1,0.5-0.1c0.2,0,0.4,0,0.5,0.2c0.3,0.6,0.5,1.1,0.8,1.5c1,1.7,1.8,3.3,2.5,4.7
																							c0.3,0.5,0.5,1,0.6,1.3c0,0.2,0,0.4-0.1,0.4c-0.1,0-0.2,0-0.4-0.1c-0.3-0.2-0.4-0.4-0.5-0.5
																							c0-0.1-0.1-0.3-0.2-0.6c-0.3-0.8-0.6-1.5-1-2.2c-0.5-0.9-1-1.9-1.7-3c-0.3-0.5-0.5-0.8-0.7-1
																							c-0.1-0.1-0.2-0.1-0.2-0.2C319.9,114.7,319.9,114.6,320,114.5L320,114.5z M323.2,112.1c0.1,0,0.2-0.1,0.3-0.1
																							c0.3,0,0.5,0.1,0.6,0.2c0,0,0,0.1,0,0.1c0,0.1,0,0.2,0,0.3c0,0.5-0.1,0.9-0.2,1.3c-0.1,0.3-0.2,0.6-0.3,0.9
																							c-0.1,0.2-0.2,0.3-0.2,0.3c0,0-0.1,0-0.1,0c0,0,0,0,0-0.1c0.1-0.3,0.1-0.6,0.1-1c0-0.3,0-0.7,0-1.1
																							c0-0.2-0.1-0.4-0.2-0.6C323.1,112.2,323.1,112.1,323.2,112.1L323.2,112.1z M324.9,111.9
																							c0.1,0,0.2-0.1,0.5-0.1c0.3,0,0.4,0.1,0.5,0.1c0,0.1,0,0.1,0,0.3c-0.1,0.3-0.1,0.5-0.1,0.7
																							c0,1.1-0.1,2-0.2,2.6c-0.2,0.7-0.4,1.2-0.6,1.7c-0.2,0.4-0.4,0.7-0.6,0.8c0,0-0.1,0-0.1,0c0,0,0-0.1,0-0.2
																							c0.3-0.7,0.6-1.4,0.7-2.2c0.1-0.8,0.2-1.5,0.2-2.1c0-0.6-0.1-0.9-0.1-1.1c0,0-0.1-0.1-0.1,0
																							c-0.1,0-0.1,0.1-0.2,0.2c-0.2,0.1-0.3,0.2-0.4,0.3c-0.1,0.1-0.2,0.1-0.3,0.1c-0.1,0-0.1,0-0.1,0
																							c0-0.1,0-0.1,0.1-0.2c0.4-0.3,0.7-0.6,0.8-0.9C324.7,111.9,324.8,111.9,324.9,111.9L324.9,111.9z M324,113.7
																							c0.1-0.1,0.3-0.1,0.4-0.2c0.2,0,0.3-0.1,0.4,0c0.1,0,0.1,0.1,0.2,0.1c0.1,0.2,0.1,0.4-0.1,0.5
																							c-0.1,0.1-0.3,0-0.5-0.1C324.2,113.9,324,113.9,324,113.7C324,113.8,324,113.8,324,113.7L324,113.7z
																							 M324.9,114.4C325,114.4,325,114.4,324.9,114.4c0.1,0,0.1,0.1,0.1,0.1c0,0.2-0.1,0.3-0.2,0.5
																							c-0.1,0.2-0.1,0.3-0.2,0.4c0,0.1-0.1,0.1-0.1,0.2c-0.1,0-0.2,0-0.4,0c-0.2-0.1-0.3-0.1-0.3-0.2c0,0,0,0,0-0.1
																							c0.1-0.1,0.3-0.2,0.5-0.4C324.5,114.8,324.7,114.6,324.9,114.4C324.9,114.5,324.9,114.4,324.9,114.4
																							L324.9,114.4z M325.9,112.4c0.2-0.1,0.5-0.1,1.1,0c1.1,0.3,1.9,0.5,2.4,0.5c0.5,0,1.2-0.1,2.2-0.2
																							c0.1,0,0.2,0,0.2,0c0,0.1,0,0.1-0.1,0.2c-0.5,0.5-0.9,0.8-1.1,0.9c-0.1,0.1-0.3,0.1-0.5,0.1
																							c-0.2,0-1-0.3-2.3-0.8c-0.4-0.2-0.8-0.3-1.1-0.4c-0.3-0.1-0.6-0.1-0.8-0.1c-0.1,0-0.1,0-0.2,0
																							C325.7,112.5,325.8,112.5,325.9,112.4L325.9,112.4z M327.2,109.9c0.1,0,0.2-0.1,0.5-0.1c0.2,0,0.4,0,0.5,0.1
																							c0,0.1,0,0.2-0.1,0.3c-0.1,0.3-0.2,0.8-0.4,1.5c-0.1,0.5-0.3,0.8-0.4,0.9c-0.1,0-0.1,0-0.1,0
																							c0-0.7,0-1.3,0-1.7c0,0-0.1-0.1-0.1,0c-0.3,0.2-0.5,0.4-0.7,0.4c-0.1,0.1-0.3,0.1-0.3,0.2
																							c-0.2,0-0.3,0-0.3-0.1c0-0.1,0-0.1,0.1-0.2c0.4-0.3,0.8-0.6,1-1C327,110.1,327.1,110,327.2,109.9L327.2,109.9
																							z M327.6,114.3c0.1-0.1,0.3-0.1,0.5-0.1c0.2,0,0.3,0,0.3,0.1c0,0,0,0.1-0.1,0.2c-0.1,0.1-0.3,0.3-0.6,0.6
																							c-0.5,0.4-0.8,0.6-0.9,0.7c-0.3,0.2-0.5,0.2-0.6,0.2c-0.2,0-0.2,0-0.3-0.1c0,0,0-0.1,0.2-0.2
																							c0.3-0.2,0.6-0.5,0.9-0.8c0.2-0.2,0.4-0.4,0.5-0.5C327.6,114.3,327.6,114.3,327.6,114.3L327.6,114.3z
																							 M329.5,114.9c0,0,0.2-0.1,0.5-0.1c0.4,0,0.6,0.1,0.6,0.2c0,0.1-0.1,0.2-0.3,0.4c-0.6,0.4-1.2,0.8-1.9,1.3
																							c-0.4,0.3-0.9,0.7-1.5,1.2c-0.1,0.1-0.2,0.2-0.2,0.2c-0.2,0.1-0.4,0.1-0.6,0.2c-0.2,0-0.4,0-0.4-0.1
																							c0,0,0-0.1,0.2-0.2c1.3-1,2.4-1.8,3.2-2.5C329.2,115.1,329.4,114.9,329.5,114.9L329.5,114.9z M327.8,116.8
																							c0.1-0.1,0.3-0.1,0.5-0.2c0.2,0,0.4,0,0.4,0.1c0,0,0.1,0.1,0.1,0.3c0.1,0.2,0.1,0.4,0.3,0.6
																							c0,0,0.3,0.6,1,1.7c0.1,0.2,0.2,0.4,0.2,0.6c0,0.2,0,0.3-0.1,0.3c-0.1,0-0.2,0-0.4-0.1
																							c-0.1-0.1-0.2-0.2-0.3-0.3c-0.1-0.1-0.2-0.3-0.2-0.5c-0.1-0.3-0.3-0.6-0.6-1.1c-0.3-0.5-0.5-0.8-0.7-1
																							c-0.1-0.1-0.2-0.2-0.2-0.2C327.7,116.9,327.7,116.8,327.8,116.8L327.8,116.8z M326.8,118.4
																							c0.2-0.1,0.3-0.1,0.5-0.1c0.2,0,0.3,0.1,0.4,0.2c0,0,0,0.1,0,0.1c0,0.1,0,0.1,0,0.2c0,0.2-0.1,0.4-0.1,0.6
																							c-0.1,0.3-0.2,0.5-0.3,0.8c-0.1,0.2-0.2,0.4-0.4,0.6c-0.1,0.1-0.2,0.2-0.2,0.2c-0.1,0-0.1,0.1-0.1,0
																							c0.1-0.3,0.1-0.5,0.2-0.7c0.1-0.4,0.1-0.7,0.1-1c0-0.3,0-0.5,0-0.6c0-0.1,0-0.2-0.1-0.2
																							C326.7,118.5,326.8,118.5,326.8,118.4L326.8,118.4z M329.8,116.6c0.1,0,0.2-0.1,0.3-0.1
																							c0.3-0.1,0.6-0.1,0.9-0.1c0.4,0,0.7,0,0.9,0.1c0.2,0.1,0.3,0.2,0.4,0.4c0.1,0.1,0.1,0.3,0.1,0.4
																							c0,0.1-0.1,0.2-0.2,0.3c0,0-0.1,0-0.2,0c-0.2,0-0.5-0.1-0.9-0.3c-0.5-0.2-0.9-0.4-1.1-0.4
																							c-0.2,0-0.3-0.1-0.3-0.1C329.8,116.7,329.8,116.7,329.8,116.6L329.8,116.6z M334,123.2c0.1,0,0.3-0.1,0.8-0.1
																							c0.4,0,0.7,0.1,0.8,0.2c0,0.1,0.1,0.2,0,0.4c0,0.3,0.1,0.8,0.4,1.4c0.6,1.5,1,2.6,1.2,3.2
																							c0.2,0.9,0.2,1.6,0,2c-0.1,0.3-0.3,0.5-0.4,0.6l-0.8-1.3c0.1-0.1,0.2-0.2,0.2-0.5c0-0.5-0.2-1.4-0.6-2.6
																							c-0.3-0.9-0.7-1.7-1-2.3c-0.1-0.2-0.3-0.3-0.7-0.1c-0.3,0.2-0.8,0.5-1.4,1.1c-0.7,0.6-1.4,1.3-2,2
																							c-0.2,0.2-0.3,0.3-0.4,0.3c-0.2,0.1-0.4,0.1-0.6,0.1c-0.3,0-0.4,0-0.5-0.1c0-0.1,0.1-0.2,0.2-0.2
																							c0.6-0.4,1.3-1,2.3-1.8c1.1-0.9,1.9-1.6,2.4-2.2C333.9,123.3,334,123.2,334,123.2L334,123.2z M334.7,129.9
																							c0.6-0.1,1-0.2,1.2-0.2l0.8,1.3c-0.1,0.1-0.3,0-0.5-0.2C335.8,130.5,335.3,130.3,334.7,129.9
																							C334.7,130,334.7,130,334.7,129.9L334.7,129.9z M329.8,122.6c0.1-0.1,0.4-0.1,0.7-0.1c0.4,0,0.6,0.1,0.7,0.2
																							c0,0.1,0.1,0.2,0.1,0.4c0,0.2,0.1,0.6,0.3,1c0.5,1.3,0.8,2.5,1,3.4c0.2,1.1,0.2,2.2,0.1,3.3
																							c-0.2,1-0.5,1.9-1.1,2.5c-0.2,0.3-0.3,0.4-0.5,0.5c-0.1,0.1-0.1,0.1-0.2,0c0-0.1,0-0.2,0.1-0.4
																							c0.5-1.2,0.7-2,0.8-2.6c0.1-0.6,0.1-1.4,0-2.3c-0.1-0.7-0.3-1.5-0.6-2.5c-0.2-0.8-0.5-1.5-0.9-2.2
																							c-0.2-0.3-0.3-0.5-0.5-0.7c-0.1-0.1-0.2-0.2-0.2-0.2C329.6,122.8,329.7,122.7,329.8,122.6L329.8,122.6z"/>
																						<g class="st55">
																							<defs>
																								<polygon id="SVGID_67_" points="140.1,279.9 419.7,279.9 419.7,4.6 140.1,4.6 140.1,279.9 
																																																	"/>
																							</defs>
																							<clipPath id="SVGID_68_">
																								<use xlink:href="#SVGID_67_"  style="overflow:visible;"/>
																							</clipPath>
																							<path class="st56" d="M243.4,97.5c0.1,0.1,0.2,0.2,0.4,0.4c0.1,0.1,0.1,0.2,0.1,0.3c0,0-0.1,0.1-0.2,0
																								c-0.1,0-0.4-0.1-0.7-0.2c-0.6-0.2-0.9-0.3-1.1-0.4c-0.3-0.2-0.5-0.3-0.5-0.4c-0.1-0.1-0.1-0.2,0-0.3
																								c0,0,0.1,0,0.2,0c0.3,0.1,0.7,0.3,1.1,0.4c0.3,0.1,0.5,0.1,0.7,0.2C243.4,97.5,243.4,97.5,243.4,97.5
																								L243.4,97.5z M242.9,99.6c0.1,0.1,0.2,0.2,0.3,0.3c0.1,0.1,0.1,0.2,0,0.3c0,0-0.1,0-0.2,0
																								c-0.6-0.3-1.3-0.5-2.3-0.7c-0.2,0-0.3-0.1-0.4-0.1c-0.1-0.1-0.2-0.2-0.4-0.4c-0.1-0.2-0.1-0.3-0.1-0.4
																								c0,0,0.1,0,0.2,0c0.5,0.2,1.2,0.5,2.3,0.8C242.7,99.5,242.9,99.5,242.9,99.6L242.9,99.6z M246,97.6
																								c0.1,0,0.1,0.1,0.2,0.3c0.1,0.3,0.2,0.5,0.1,0.6c0,0-0.1,0-0.1,0.1c-0.1,0-0.1,0.1-0.2,0.1
																								c-0.4,0.2-0.8,0.4-1.1,0.5c-0.3,0.1-0.6,0.1-0.8,0.2c-0.2,0-0.3,0-0.4,0c0,0-0.1,0,0-0.1c0,0,0,0,0.1,0
																								c0.3-0.1,0.5-0.2,0.8-0.4c0.3-0.2,0.6-0.4,0.8-0.6c0.2-0.1,0.3-0.3,0.4-0.5C245.8,97.6,245.9,97.6,246,97.6
																								L246,97.6z M248.2,99.7c0.1,0,0.2,0.2,0.4,0.6c0.2,0.4,0.3,0.6,0.2,0.7c0,0.1-0.1,0.1-0.2,0.1
																								c-0.2,0-0.3-0.1-0.4,0c-0.2,0-0.6,0-1.3,0c0,0-0.1-0.1-0.1-0.1c0.3-0.2,0.6-0.4,0.9-0.6c0-0.1,0-0.1-0.1-0.2
																								c-0.1,0-0.2-0.1-0.5-0.2c-0.5-0.2-1-0.3-1.5-0.5c-0.1,0-0.2-0.1-0.3-0.1c-0.1,0-0.2-0.1-0.2-0.2
																								c-0.1-0.1-0.1-0.2-0.1-0.3c0,0,0.1,0,0.3,0c0.7,0.3,1.4,0.5,2.2,0.7C247.9,99.6,248.1,99.6,248.2,99.7
																								L248.2,99.7z M245.7,99.7c0.1,0,0.1,0.2,0.2,0.4c0,0.2,0,0.3,0,0.4c0,0-0.1,0.1-0.1,0.1
																								c-0.1,0-0.2,0-0.3,0.1c-0.3,0.2-0.7,0.3-1,0.4c-0.4,0.1-0.7,0.1-1.1,0.1c-0.4,0-0.7-0.1-0.9-0.2
																								c-0.1,0-0.1-0.1-0.1-0.1c0,0,0,0,0.1,0c0.3,0,0.8,0,1.3-0.1c0.5-0.1,0.9-0.2,1.2-0.4
																								c0.2-0.1,0.4-0.3,0.5-0.4C245.5,99.7,245.6,99.6,245.7,99.7L245.7,99.7z M245.5,100.4
																								c0.2,0.1,0.3,0.3,0.6,0.6c0.4,0.7,0.8,1.2,1,1.4c0.2,0.3,0.7,0.7,1.3,1.2c0.1,0.1,0.1,0.1,0.1,0.1
																								c0,0.1-0.1,0.1-0.2,0.1c-0.6-0.1-1-0.2-1.2-0.3c-0.1-0.1-0.2-0.2-0.3-0.3c-0.1-0.1-0.3-0.6-0.7-1.5
																								c-0.1-0.3-0.2-0.5-0.3-0.7c-0.1-0.2-0.2-0.4-0.4-0.5c-0.1,0-0.1-0.1-0.1-0.1
																								C245.1,100.3,245.3,100.3,245.5,100.4L245.5,100.4z M241.3,100.7c0.2,0.1,0.3,0.2,0.4,0.3
																								c0.1,0.1,0.1,0.3,0,0.4c-1.2,2-1.9,3.1-2.1,3.3c-0.1,0.1-0.2,0.2-0.3,0.2c-0.1,0-0.1-0.2-0.1-0.4
																								c0-0.3,0.1-0.5,0.2-0.7c0-0.1,0.1-0.1,0.1-0.2c0.1-0.1,0.3-0.4,0.5-0.7c0.2-0.3,0.5-0.8,0.9-1.5
																								c0.2-0.3,0.2-0.6,0.2-0.8c0-0.1,0-0.1,0-0.1C241.1,100.7,241.2,100.7,241.3,100.7L241.3,100.7z M245.2,102.5
																								c0.1,0,0.2,0.2,0.4,0.6c0.1,0.2,0.2,0.4,0.1,0.5c0,0.1-0.1,0.2-0.3,0.3c-0.1,0.1-0.3,0.3-0.6,0.8
																								c-0.3,0.5-0.5,0.9-0.7,1.2c-0.1,0.2-0.2,0.4-0.3,0.5c-0.1,0.2-0.3,0.4-0.5,0.5c-0.2,0.1-0.4,0.2-0.5,0.1
																								c0,0-0.1-0.1-0.1-0.3c0-0.2,0-0.4,0.1-0.6c0-0.1,0.1-0.2,0.2-0.3c0.1-0.1,0.2-0.3,0.3-0.4
																								c0.8-1.5,1.3-2.3,1.3-2.5c0-0.1-0.1-0.2-0.2-0.2c-0.3-0.2-0.8-0.4-1.5-0.7c-0.6-0.2-1-0.4-1.3-0.5
																								c-0.2-0.1-0.3-0.2-0.3-0.3c-0.1-0.1-0.1-0.2,0-0.2c0,0,0.1,0,0.2,0c0.9,0.4,1.8,0.8,3,1.2
																								C245,102.4,245.2,102.4,245.2,102.5L245.2,102.5z M244,103.6c0.1,0,0.2,0.1,0.3,0.3c0.1,0.2,0.2,0.2,0.2,0.3
																								c0,0.1-0.2,0.1-0.4,0c-0.3-0.1-0.5-0.3-0.7-0.3c-0.2-0.1-0.6-0.3-1.4-0.6c-0.4-0.2-0.7-0.3-0.9-0.4
																								c-0.1-0.1-0.2-0.1-0.3-0.2c-0.1-0.1-0.1-0.2-0.1-0.2c0-0.1,0.2-0.1,0.4,0c0.8,0.4,1.7,0.7,2.5,1.1
																								C243.9,103.5,244,103.6,244,103.6L244,103.6z M243.5,104.7c0.1,0,0.2,0.1,0.3,0.3c0.1,0.2,0.2,0.2,0.2,0.3
																								c0,0.1-0.2,0.1-0.4,0c-0.3-0.1-0.5-0.3-0.7-0.4c-0.2-0.1-0.6-0.3-1.4-0.6c-0.4-0.2-0.7-0.3-0.8-0.4
																								c-0.1-0.1-0.2-0.1-0.3-0.2c-0.1-0.1-0.1-0.2-0.1-0.2c0-0.1,0.2-0.1,0.4,0c0.8,0.4,1.7,0.8,2.5,1.1
																								C243.3,104.6,243.4,104.7,243.5,104.7L243.5,104.7z M242.8,105.8c0.1,0.1,0.2,0.2,0.3,0.4
																								c0.1,0.2,0.1,0.3,0.1,0.4c0,0.1-0.1,0.1-0.2,0c-0.4-0.2-0.7-0.4-1.1-0.5c-1-0.5-1.5-0.7-1.5-0.7
																								c-0.3-0.1-0.5-0.2-0.6-0.3c-0.2-0.1-0.3-0.2-0.3-0.3c0-0.1,0-0.2,0-0.2c0-0.1,0.1-0.1,0.2,0
																								c0.8,0.4,1.6,0.8,2.3,1C242.4,105.6,242.6,105.7,242.8,105.8L242.8,105.8z M240.1,105.1
																								c0.1,0,0.2,0.2,0.4,0.4c0.2,0.2,0.2,0.4,0.2,0.6c0,0.1-0.1,0.1-0.2,0.1c-0.2,0-0.5,0-0.8,0
																								c-0.5,0.1-1,0.1-1.6,0c-0.3,0-0.6,0-0.8-0.1c-0.1,0-0.3,0-0.3-0.1c-0.1,0-0.1-0.1-0.1-0.1
																								c0.5,0,0.9-0.1,1.4-0.1c0.6-0.1,1-0.2,1.4-0.3c0.1,0,0.2-0.1,0.3-0.3C240,105.1,240.1,105.1,240.1,105.1
																								L240.1,105.1z M241.8,106.4c0.1,0,0.1,0.1,0.3,0.2c0.2,0.3,0.4,0.5,0.6,0.8c0.2,0.4,0.4,0.7,0.4,1
																								c0,0.2,0,0.4-0.1,0.6c0,0.1-0.1,0.1-0.2,0.2c-0.1,0-0.2,0-0.2,0c-0.1,0-0.1-0.1-0.2-0.2
																								c-0.1-0.2-0.2-0.5-0.3-1c-0.1-0.6-0.2-1-0.3-1.2C241.7,106.6,241.7,106.5,241.8,106.4
																								C241.8,106.4,241.8,106.4,241.8,106.4L241.8,106.4z M235.8,108.7c0.1,0.1,0.3,0.2,0.4,0.4
																								c0.1,0.2,0.2,0.4,0.2,0.6c0,0.2-0.1,0.3-0.1,0.4c-0.2,0.3-0.5,0.4-0.8,0.3c-0.1-0.1-0.1-0.3-0.1-0.8
																								c0.1-0.5,0.1-0.8,0.2-0.9C235.7,108.7,235.7,108.7,235.8,108.7L235.8,108.7z M236.5,110.7
																								c0.1,0.1,0.3,0.2,0.4,0.4c0.1,0.2,0.1,0.3,0,0.4c0,0.1-0.1,0-0.2,0c-0.8-0.4-1.9-0.8-3.1-1.1
																								c-0.3-0.1-0.4-0.1-0.5-0.2c-0.1-0.1-0.3-0.2-0.5-0.5c-0.1-0.2-0.2-0.4-0.1-0.5c0,0,0.1,0,0.2,0
																								c0.6,0.3,1.7,0.7,3.2,1.2C236.2,110.6,236.4,110.7,236.5,110.7L236.5,110.7z M235.2,111.8
																								c0.1,0,0.2,0.2,0.4,0.3c0.2,0.2,0.2,0.3,0.2,0.4c0,0.1-0.2,0.1-0.5,0c-0.2-0.1-0.3-0.1-0.4-0.2
																								c-0.1,0-0.4-0.1-0.8-0.3c-0.2-0.1-0.4-0.2-0.5-0.2c-0.2-0.1-0.3-0.2-0.4-0.3c-0.1-0.1-0.2-0.2-0.1-0.3
																								c0.1-0.1,0.2-0.1,0.4,0.1c0.5,0.2,1,0.3,1.5,0.4C235.1,111.8,235.2,111.8,235.2,111.8L235.2,111.8z
																								 M234.4,113c0.1,0,0.2,0.2,0.4,0.3c0.2,0.2,0.2,0.3,0.2,0.4c0,0.1-0.2,0.1-0.5,0c-0.2-0.1-0.3-0.1-0.4-0.2
																								c-0.1,0-0.3-0.1-0.8-0.3c-0.2-0.1-0.4-0.1-0.5-0.2c-0.2-0.1-0.3-0.2-0.4-0.3c-0.1-0.1-0.2-0.2-0.1-0.3
																								c0.1-0.1,0.2-0.1,0.4,0.1c0.4,0.2,0.9,0.3,1.3,0.4C234.4,113,234.4,113,234.4,113L234.4,113z M231.8,113.7
																								c0.1,0.1,0.2,0.2,0.3,0.2c0.2,0.2,0.2,0.3,0.2,0.4c-0.1,0.1-0.1,0.2-0.2,0.3c-0.3,0.6-0.5,1.1-0.6,1.3
																								c-0.1,0.1-0.1,0.2-0.2,0.2c-0.1,0-0.1,0.1-0.2,0c0,0-0.1-0.1-0.1-0.2c0-0.1,0-0.3,0.1-0.4
																								c0.2-0.4,0.2-0.6,0.2-0.6c0.1-0.3,0.2-0.5,0.3-0.7c0-0.1,0.1-0.3,0-0.4c0,0,0-0.1,0-0.1
																								C231.7,113.6,231.7,113.6,231.8,113.7L231.8,113.7z M234.1,114.3c0.1,0.1,0.3,0.2,0.5,0.5
																								c0.1,0.1,0.1,0.3,0,0.4c0,0.1-0.1,0.1-0.3,0.2c-0.2,0.1-0.3,0.2-0.5,0.4c0,0-0.2,0.2-0.6,0.6
																								c-0.1,0.1-0.2,0.1-0.3,0c-0.2-0.1-0.2-0.2-0.2-0.2c0,0,0.1-0.1,0.1-0.2c0.2-0.2,0.3-0.4,0.4-0.6
																								c0.1-0.2,0.2-0.3,0.3-0.5c0-0.1,0-0.1-0.1-0.2c-0.1-0.1-0.3-0.1-0.5-0.2c-0.4-0.1-0.7-0.2-0.8-0.3
																								c-0.1,0-0.1-0.1-0.2-0.3c-0.1-0.1-0.1-0.2-0.1-0.2c0,0,0.1,0,0.2,0c0.3,0.2,0.7,0.3,0.9,0.3
																								c0.3,0.1,0.6,0.1,0.8,0.1C234,114.3,234,114.3,234.1,114.3L234.1,114.3z M232.8,116c0.1,0.1,0.2,0.2,0.3,0.4
																								c0.1,0.2,0.1,0.3,0.1,0.4c0,0-0.1,0.1-0.1,0c-0.2-0.1-0.4-0.2-0.5-0.2c-0.5-0.2-0.7-0.3-0.7-0.3
																								c-0.1-0.1-0.2-0.1-0.3-0.1c-0.2-0.1-0.3-0.2-0.3-0.3c0-0.1,0-0.2,0-0.2c0-0.1,0.1-0.1,0.2,0
																								c0.3,0.2,0.7,0.3,1,0.3C232.7,115.9,232.8,116,232.8,116L232.8,116z M241.2,112.1c0.2,0.1,0.3,0.3,0.5,0.6
																								c0.1,0.2,0.1,0.4,0.1,0.4c0,0.1-0.1,0.1-0.3,0.3c-0.4,0.3-0.9,0.8-1.3,1.3c-0.4,0.5-0.8,1.1-1.2,1.6
																								c-0.3,0.6-0.5,1.1-0.6,1.5c-0.1,0.5-0.1,0.9,0,1.2c0.1,0.2,0.2,0.4,0.3,0.5c0.2,0.1,0.4-0.1,0.7-0.5
																								c0,0,0.2-0.3,0.6-0.8c0.1-0.1,0.1-0.2,0.2-0.2c0,0,0,0.1,0,0.3c-0.4,0.9-0.5,1.5-0.5,1.7c0,0.3,0,0.4,0,0.4
																								c-0.1,0.1-0.2,0.2-0.4,0.2c-0.3,0-0.5,0-0.8-0.2c-0.4-0.2-0.7-0.5-0.8-0.9c-0.2-0.4-0.2-0.9-0.2-1.4
																								c0.1-0.6,0.3-1.3,0.8-2c0.4-0.7,1-1.6,1.8-2.7c0.2-0.3,0.3-0.5,0.4-0.6c0.1-0.1,0-0.2-0.1-0.3
																								c-0.1-0.1-0.3-0.1-0.5-0.2c-1.1-0.2-1.7-0.4-1.7-0.4c-0.2,0-0.4-0.1-0.5-0.1c-0.1-0.1-0.2-0.2-0.4-0.4
																								c-0.1-0.1-0.1-0.3-0.1-0.3c0-0.1,0.1-0.1,0.3,0c0.3,0.1,0.8,0.3,1.3,0.4c0.7,0.2,1.3,0.3,1.9,0.4
																								C241,112.1,241.2,112.1,241.2,112.1L241.2,112.1z M238.2,111.7c0.2,0.1,0.3,0.3,0.5,0.5
																								c0.1,0.1,0.1,0.2,0,0.3c0,0.1-0.1,0.1-0.2,0.3c-0.3,0.3-0.5,0.7-0.8,1.2c-0.7,1.2-1.1,1.9-1.1,1.9
																								c-0.3,0.6-0.6,1.1-0.8,1.5c-0.1,0.2-0.2,0.4-0.3,0.6c-0.1,0.2-0.2,0.3-0.4,0.4c-0.2,0.1-0.3,0.1-0.4,0.1
																								c-0.1,0-0.1-0.2-0.1-0.4c0-0.3,0.1-0.5,0.1-0.6c0,0,0.1-0.1,0.2-0.3c0.2-0.2,0.5-0.7,1-1.5
																								c0,0,0.4-0.7,1.2-2.1c0.5-0.8,0.7-1.3,0.7-1.5c0-0.1,0-0.2,0.1-0.2C237.9,111.6,238,111.6,238.2,111.7
																								L238.2,111.7z M237.9,114.4c0.1,0,0.2,0.2,0.4,0.3c0.2,0.2,0.2,0.3,0.2,0.4c0,0.1-0.2,0.1-0.5,0
																								c-0.2-0.1-0.4-0.1-0.5-0.2c-0.1,0-0.5-0.1-1-0.3c-0.3-0.1-0.5-0.2-0.6-0.2c-0.2-0.1-0.3-0.2-0.4-0.3
																								c-0.1-0.1-0.2-0.2-0.1-0.3c0.1-0.1,0.2-0.1,0.4,0.1c0.6,0.2,1.1,0.3,1.7,0.4
																								C237.8,114.4,237.9,114.4,237.9,114.4L237.9,114.4z M233.7,124.3c0.1,0,0.2,0.2,0.5,0.6
																								c0.2,0.4,0.3,0.7,0.2,0.8c0,0.1-0.2,0.2-0.4,0.2c-0.3,0.1-0.6,0.5-1.1,1c-1,1.3-1.7,2.2-2.2,2.6
																								c-0.7,0.6-1.3,1-1.8,1c-0.3,0-0.6,0-0.7-0.1l0.7-1.3c0.1,0.1,0.3,0,0.5-0.1c0.5-0.3,1.1-0.9,1.9-1.8
																								c0.6-0.7,1.1-1.4,1.5-2c0.1-0.2,0-0.4-0.3-0.6c-0.3-0.2-0.9-0.4-1.6-0.7c-0.9-0.3-1.8-0.6-2.7-0.8
																								c-0.2-0.1-0.4-0.1-0.5-0.2c-0.2-0.1-0.3-0.3-0.4-0.5c-0.1-0.2-0.2-0.4-0.1-0.4c0.1,0,0.2,0,0.3,0.1
																								c0.6,0.3,1.5,0.7,2.7,1.1c1.3,0.5,2.3,0.8,3.1,0.9C233.6,124.3,233.7,124.3,233.7,124.3L233.7,124.3z
																								 M228.2,128.3c0.4,0.5,0.7,0.8,0.8,0.9l-0.7,1.3c-0.1-0.1-0.1-0.2-0.1-0.5
																								C228.3,129.6,228.2,129,228.2,128.3C228.2,128.3,228.2,128.3,228.2,128.3L228.2,128.3z M232.1,120.4
																								c0.1,0.1,0.3,0.3,0.5,0.6c0.2,0.3,0.2,0.5,0.2,0.7c0,0.1-0.1,0.1-0.3,0.2c-0.2,0.2-0.4,0.4-0.7,0.8
																								c-0.9,1.1-1.7,1.9-2.5,2.6c-0.8,0.7-1.8,1.3-2.8,1.7c-1,0.4-1.9,0.5-2.7,0.3c-0.3,0-0.5-0.1-0.7-0.1
																								c-0.1-0.1-0.1-0.1-0.1-0.1c0-0.1,0.2-0.1,0.4-0.1c1.2-0.2,2.1-0.4,2.7-0.6c0.6-0.2,1.3-0.6,2-1.1
																								c0.6-0.4,1.2-1,1.9-1.7c0.5-0.6,1-1.2,1.4-1.9c0.2-0.3,0.3-0.5,0.3-0.8c0-0.1,0-0.2,0.1-0.3
																								C231.8,120.3,232,120.3,232.1,120.4L232.1,120.4z"/>
																							<g class="st57">
																								<defs>
																									<polygon id="SVGID_69_" points="140.1,279.9 419.7,279.9 419.7,4.6 140.1,4.6 140.1,279.9 
																																																			"/>
																								</defs>
																								<clipPath id="SVGID_70_">
																									<use xlink:href="#SVGID_69_"  style="overflow:visible;"/>
																								</clipPath>
																								<g class="st58">
																									<defs>
																										<rect id="SVGID_71_" x="140.1" y="4.6" width="279.7" height="275.3"/>
																									</defs>
																									<clipPath id="SVGID_72_">
																										<use xlink:href="#SVGID_71_"  style="overflow:visible;"/>
																									</clipPath>
																									<g class="st59">
																										<text transform="matrix(1 0 0 1 269.583 131.9404)" class="st60 st29 st30">專業</text>
																									</g>
																								</g>
																								<g class="st58">
																									<defs>
																										<polygon id="SVGID_73_" points="140.1,279.9 419.7,279.9 419.7,4.6 140.1,4.6 140.1,279.9 
																																																					"/>
																									</defs>
																									<clipPath id="SVGID_74_">
																										<use xlink:href="#SVGID_73_"  style="overflow:visible;"/>
																									</clipPath>
																									<g class="st61">
																										<defs>
																											<rect id="SVGID_75_" x="140.1" y="4.6" width="279.7" height="275.3"/>
																										</defs>
																										<clipPath id="SVGID_76_">
																											<use xlink:href="#SVGID_75_"  style="overflow:visible;"/>
																										</clipPath>
																										<g class="st62">
																											<text transform="matrix(1 0 0 1 269.583 147.666)" class="st60 st29 st30">Plus</text>
																										</g>
																									</g>
																									<g class="st61">
																										<defs>
																											<polygon id="SVGID_77_" points="140.1,279.9 419.7,279.9 419.7,4.6 140.1,4.6 140.1,279.9 
																																																							"/>
																										</defs>
																										<clipPath id="SVGID_78_">
																											<use xlink:href="#SVGID_77_"  style="overflow:visible;"/>
																										</clipPath>
																										<g class="st63">
																											<defs>
																												<rect id="SVGID_79_" x="140.1" y="4.6" width="279.7" height="275.3"/>
																											</defs>
																											<clipPath id="SVGID_80_">
																												<use xlink:href="#SVGID_79_"  style="overflow:visible;"/>
																											</clipPath>
																											<g class="st64">
																												<text transform="matrix(1 0 0 1 262.3813 200.0762)" class="st28 st29 st30">學習力</text>
																											</g>
																										</g>
																									</g>
																								</g>
																							</g>
																						</g>
																					</g>
																				</g>
																			</g>
																		</g>
																	</g>
																</g>
															</g>
														</g>
													</g>
												</g>
											</g>
										</g>
									</g>
								</g>
							</g>
						</g>
					</g>
				</g>
			</g>
		</g>
	</g>
</g>
</svg>
